# xmcd CD database file
#
# Track frame offsets:
#	300
#	41254
#	85032
#	100844
#	115169
#	146888
#	182059
#	208672
#	244936
#	282066
#	313644
#
# Disc length: 4310 seconds
#
# Revision: 7
# Processed by: cddbd v1.5.2PL0 Copyright (c) Steve Scherf et al.
# Submitted via: CDex 1.51
#
DISCID=9710d20b
DTITLE=Gerry Mulligan - Paul Desmond Quartet - Blues in time
DYEAR=1956
DGENRE=Jazz
TTITLE0=Blues in time
TTITLE1=Body and soul
TTITLE2=Stand still
TTITLE3=Line for lyons
TTITLE4=Wintersong
TTITLE5=Battle hymn of the republican
TTITLE6=Fall out
TTITLE7=Tea for two
TTITLE8=Wintersong (alternate take))
TTITLE9=Lover
TTITLE10=Lover (alternate take)
EXTD=YEAR: 1956
EXTT0=
EXTT1=
EXTT2=
EXTT3=
EXTT4=
EXTT5=
EXTT6=
EXTT7=
EXTT8=
EXTT9=
EXTT10=
PLAYORDER=
